# This file uses centimeters as units for non-parametric coordinates.

mtllib crate texture.mtl
g default
v -0.500000 -0.426579 0.500000
v 0.500000 -0.426579 0.500000
v -0.500000 0.426579 0.500000
v 0.500000 0.426579 0.500000
v -0.500000 0.426579 -0.500000
v 0.500000 0.426579 -0.500000
v -0.500000 -0.426579 -0.500000
v 0.500000 -0.426579 -0.500000
v -0.537995 -0.537995 0.537995
v 0.537995 -0.537995 0.537995
v 0.532905 -0.426579 0.532905
v -0.532905 -0.426579 0.532905
v -0.532905 -0.426579 -0.532905
v 0.532905 -0.426579 -0.532905
v 0.537995 -0.537995 -0.537995
v -0.537995 -0.537995 -0.537995
v -0.532905 0.426579 0.532905
v 0.532905 0.426579 0.532905
v 0.537995 0.537995 0.537995
v -0.537995 0.537995 0.537995
v 0.537995 0.537995 -0.537995
v -0.537995 0.537995 -0.537995
v 0.532905 0.426579 -0.532905
v -0.532905 0.426579 -0.532905
vt 0.486001 0.659752
vt 0.486001 0.340210
vt 0.519089 0.341722
vt 0.519089 0.658240
vt 0.004006 0.997546
vt 0.005811 0.002416
vt 1.001083 0.002416
vt 0.999279 0.997546
vt 0.486001 0.658240
vt 0.486001 0.341722
vt 0.519089 0.340210
vt 0.519089 0.659752
vt 0.486001 0.659752
vt 0.486001 0.340210
vt 0.519089 0.341722
vt 0.519089 0.658240
vt 0.004006 0.997546
vt 0.005811 0.002416
vt 1.001084 0.002416
vt 0.999278 0.997546
vt 0.486001 0.658240
vt 0.486001 0.341722
vt 0.519089 0.340210
vt 0.519089 0.659752
vt 0.003661 0.000188
vt 1.005065 0.000188
vt 1.003247 0.999774
vt 0.000024 0.997956
vt 0.008518 0.000519
vt 1.003819 0.002330
vt 1.003819 0.999443
vt 0.001271 0.997632
vt 0.993782 0.011472
vt 0.014945 0.011472
vt 0.005173 0.001700
vt 1.003554 0.001700
vt 0.011308 0.986672
vt 0.001536 0.996444
vt 0.991963 0.988490
vt 1.001735 0.998262
vt 0.011308 0.986672
vt 0.991963 0.988490
vt 1.001735 0.998262
vt 0.001536 0.996444
vt 0.993782 0.011472
vt 1.003554 0.001700
vt 0.014945 0.011472
vt 0.005173 0.001700
vt 0.486001 0.659752
vt 0.486001 0.340210
vt 0.519089 0.341722
vt 0.519089 0.658240
vt 0.004006 0.997546
vt 0.005811 0.002416
vt 1.001083 0.002416
vt 0.999278 0.997546
vt 0.486001 0.658240
vt 0.486001 0.341722
vt 0.519089 0.340210
vt 0.519089 0.659752
vt 0.486001 0.659752
vt 0.486001 0.340210
vt 0.519089 0.341722
vt 0.519089 0.658240
vt 0.004006 0.997546
vt 0.005811 0.002416
vt 1.001083 0.002416
vt 0.999278 0.997546
vt 0.486001 0.658240
vt 0.486001 0.341722
vt 0.519089 0.340210
vt 0.519089 0.659752
vn 0.000000 0.045640 0.998958
vn 0.000000 0.045640 0.998958
vn 0.000000 0.045640 0.998958
vn 0.000000 0.045640 0.998958
vn 0.000000 0.000000 1.000000
vn 0.000000 0.000000 1.000000
vn 0.000000 0.000000 1.000000
vn 0.000000 0.000000 1.000000
vn 0.000000 -0.045640 0.998958
vn 0.000000 -0.045640 0.998958
vn 0.000000 -0.045640 0.998958
vn 0.000000 -0.045640 0.998958
vn 0.000000 1.000000 0.000000
vn 0.000000 1.000000 0.000000
vn 0.000000 1.000000 0.000000
vn 0.000000 1.000000 0.000000
vn 0.000000 -0.045640 -0.998958
vn 0.000000 -0.045640 -0.998958
vn 0.000000 -0.045640 -0.998958
vn 0.000000 -0.045640 -0.998958
vn 0.000000 0.000000 -1.000000
vn 0.000000 0.000000 -1.000000
vn 0.000000 0.000000 -1.000000
vn 0.000000 0.000000 -1.000000
vn 0.000000 0.045640 -0.998958
vn 0.000000 0.045640 -0.998958
vn 0.000000 0.045640 -0.998958
vn 0.000000 0.045640 -0.998958
vn 0.000000 -1.000000 0.000000
vn 0.000000 -1.000000 0.000000
vn 0.000000 -1.000000 0.000000
vn 0.000000 -1.000000 0.000000
vn 0.998958 0.045640 0.000000
vn 0.998958 0.045640 0.000000
vn 0.998958 0.045640 0.000000
vn 0.998958 0.045640 0.000000
vn 1.000000 0.000000 0.000000
vn 1.000000 0.000000 0.000000
vn 1.000000 0.000000 0.000000
vn 1.000000 0.000000 0.000000
vn 0.998958 -0.045640 0.000000
vn 0.998958 -0.045640 0.000000
vn 0.998958 -0.045640 0.000000
vn 0.998958 -0.045640 0.000000
vn -0.998958 0.045640 -0.000000
vn -0.998958 0.045640 -0.000000
vn -0.998958 0.045640 -0.000000
vn -0.998958 0.045640 -0.000000
vn -1.000000 0.000000 0.000000
vn -1.000000 0.000000 0.000000
vn -1.000000 0.000000 0.000000
vn -1.000000 0.000000 0.000000
vn -0.998958 -0.045640 0.000000
vn -0.998958 -0.045640 0.000000
vn -0.998958 -0.045640 0.000000
vn -0.998958 -0.045640 0.000000
vn -0.000003 1.000000 -0.000001
vn 0.000002 1.000000 -0.000001
vn 0.000002 1.000000 -0.000001
vn -0.000003 1.000000 -0.000001
vn 0.000002 1.000000 0.000003
vn -0.000003 1.000000 0.000003
vn -0.000003 1.000000 0.000003
vn 0.000002 1.000000 0.000003
vn -0.000001 -1.000000 0.000001
vn 0.000003 -1.000000 0.000001
vn 0.000003 -1.000000 0.000001
vn -0.000001 -1.000000 0.000001
vn 0.000003 -1.000000 -0.000002
vn -0.000001 -1.000000 -0.000002
vn -0.000001 -1.000000 -0.000002
vn 0.000003 -1.000000 -0.000002
s off
g pCube1
usemtl blinn1SG
f 9/49/1 10/50/2 11/51/3 12/52/4
f 1/53/5 2/54/6 4/55/7 3/56/8
f 17/57/9 18/58/10 19/59/11 20/60/12
f 20/25/13 19/26/14 21/27/15 22/28/16
f 22/61/17 21/62/18 23/63/19 24/64/20
f 5/65/21 6/66/22 8/67/23 7/68/24
f 13/69/25 14/70/26 15/71/27 16/72/28
f 16/29/29 15/30/30 10/31/31 9/32/32
f 10/1/33 15/2/34 14/3/35 11/4/36
f 2/5/37 8/6/38 6/7/39 4/8/40
f 18/9/41 23/10/42 21/11/43 19/12/44
f 16/13/45 9/14/46 12/15/47 13/16/48
f 7/17/49 1/18/50 3/19/51 5/20/52
f 24/21/53 17/22/54 20/23/55 22/24/56
s 1
f 2/33/57 1/34/58 12/35/59 11/36/60
f 7/37/61 8/39/62 14/40/63 13/38/64
f 8/39/62 2/33/57 11/36/60 14/40/63
f 1/34/58 7/37/61 13/38/64 12/35/59
s 2
f 3/41/65 4/42/66 18/43/67 17/44/68
f 6/45/69 5/47/70 24/48/71 23/46/72
f 4/42/66 6/45/69 23/46/72 18/43/67
f 5/47/70 3/41/65 17/44/68 24/48/71
